<svg xmlns="http://www.w3.org/2000/svg" viewBox="0 0 1280 800" width="1280" height="800">
  <defs>
    <linearGradient id="header" x1="0%" y1="0%" x2="100%" y2="0%">
      <stop offset="0%" stop-color="#0EA5E9"/>
      <stop offset="100%" stop-color="#7DD3FC"/>
    </linearGradient>
  </defs>
  <!-- Background -->
  <rect width="1280" height="800" fill="#F0F9FF"/>
  <!-- Sidebar -->
  <rect width="240" height="800" fill="#0EA5E9"/>
  <text x="24" y="50" font-family="Arial" font-size="22" font-weight="bold" fill="white">HEMATIN</text>
  <text x="24" y="68" font-family="Arial" font-size="11" fill="rgba(255,255,255,0.75)">Asisten Keuangan AI</text>
  <rect x="12" y="96" width="216" height="40" rx="10" fill="rgba(255,255,255,0.2)"/>
  <text x="36" y="122" font-family="Arial" font-size="14" fill="white">Dashboard</text>
  <text x="36" y="168" font-family="Arial" font-size="14" fill="rgba(255,255,255,0.75)">Transaksi</text>
  <text x="36" y="216" font-family="Arial" font-size="14" fill="rgba(255,255,255,0.75)">Scan Struk</text>
  <text x="36" y="264" font-family="Arial" font-size="14" fill="rgba(255,255,255,0.75)">Laporan</text>
  <text x="36" y="312" font-family="Arial" font-size="14" fill="rgba(255,255,255,0.75)">Goals</text>
  <text x="36" y="360" font-family="Arial" font-size="14" fill="rgba(255,255,255,0.75)">Pengaturan</text>
  <!-- Topbar -->
  <rect x="240" width="1040" height="60" fill="white"/>
  <text x="264" y="36" font-family="Arial" font-size="18" font-weight="bold" fill="#0F172A">Dashboard</text>
  <text x="264" y="52" font-family="Arial" font-size="12" fill="#64748B">Rabu, 11 Maret 2026</text>
  <!-- Stat cards -->
  <rect x="264" y="80" width="220" height="100" rx="14" fill="white"/>
  <text x="284" y="108" font-family="Arial" font-size="12" fill="#64748B">Total Pemasukan</text>
  <text x="284" y="138" font-family="Arial" font-size="20" font-weight="bold" fill="#22C55E">Rp 5.500.000</text>
  <rect x="504" y="80" width="220" height="100" rx="14" fill="white"/>
  <text x="524" y="108" font-family="Arial" font-size="12" fill="#64748B">Total Pengeluaran</text>
  <text x="524" y="138" font-family="Arial" font-size="20" font-weight="bold" fill="#EF4444">Rp 3.050.000</text>
  <rect x="744" y="80" width="220" height="100" rx="14" fill="white"/>
  <text x="764" y="108" font-family="Arial" font-size="12" fill="#64748B">Net Cash Flow</text>
  <text x="764" y="138" font-family="Arial" font-size="20" font-weight="bold" fill="#0EA5E9">Rp 2.450.000</text>
  <rect x="984" y="80" width="220" height="100" rx="14" fill="#0EA5E9"/>
  <text x="1004" y="108" font-family="Arial" font-size="12" fill="rgba(255,255,255,0.85)">Transaksi Hari Ini</text>
  <text x="1004" y="148" font-family="Arial" font-size="36" font-weight="bold" fill="white">12</text>
  <!-- AI Insight -->
  <rect x="264" y="200" width="450" height="180" rx="14" fill="#0C4A6E"/>
  <text x="284" y="232" font-family="Arial" font-size="14" font-weight="bold" fill="white">AI Insight Harian</text>
  <text x="284" y="260" font-family="Arial" font-size="12" fill="rgba(255,255,255,0.85)">Pengeluaran makan siang naik 23% dari minggu lalu.</text>
  <text x="284" y="280" font-family="Arial" font-size="12" fill="rgba(255,255,255,0.85)">Pertimbangkan memasak sendiri — hemat ~Rp 250.000/minggu!</text>
  <text x="284" y="320" font-family="Arial" font-size="12" fill="rgba(255,255,255,0.7)">Kategori terbesar: Makanan 42%, Transport 18%, Belanja 15%</text>
  <!-- Chart area -->
  <rect x="734" y="200" width="470" height="180" rx="14" fill="white"/>
  <text x="754" y="228" font-family="Arial" font-size="14" font-weight="bold" fill="#0F172A">Pengeluaran 7 Hari</text>
  <rect x="770" y="300" width="36" height="50" rx="4" fill="#BAE6FD"/>
  <rect x="826" y="275" width="36" height="75" rx="4" fill="#BAE6FD"/>
  <rect x="882" y="285" width="36" height="65" rx="4" fill="#0EA5E9"/>
  <rect x="938" y="265" width="36" height="85" rx="4" fill="#BAE6FD"/>
  <rect x="994" y="290" width="36" height="60" rx="4" fill="#BAE6FD"/>
  <rect x="1050" y="280" width="36" height="70" rx="4" fill="#BAE6FD"/>
  <rect x="1106" y="258" width="36" height="92" rx="4" fill="#0EA5E9"/>
  <!-- Transaction list -->
  <rect x="264" y="400" width="700" height="380" rx="14" fill="white"/>
  <text x="284" y="432" font-family="Arial" font-size="14" font-weight="bold" fill="#0F172A">Transaksi Terbaru</text>
  <rect x="284" y="444" width="660" height="52" rx="8" fill="#F8FAFC"/>
  <text x="344" y="464" font-family="Arial" font-size="13" font-weight="bold" fill="#0F172A">Makan Siang</text>
  <text x="344" y="480" font-family="Arial" font-size="11" fill="#64748B">Makanan &amp; Minuman</text>
  <text x="928" y="464" font-family="Arial" font-size="13" font-weight="bold" fill="#EF4444" text-anchor="end">-Rp 35.000</text>
  <rect x="284" y="504" width="660" height="52" rx="8" fill="white"/>
  <text x="344" y="524" font-family="Arial" font-size="13" font-weight="bold" fill="#0F172A">Gaji Maret</text>
  <text x="344" y="540" font-family="Arial" font-size="11" fill="#64748B">Gaji &amp; Upah</text>
  <text x="928" y="524" font-family="Arial" font-size="13" font-weight="bold" fill="#22C55E" text-anchor="end">+Rp 5.500.000</text>
  <rect x="284" y="564" width="660" height="52" rx="8" fill="#F8FAFC"/>
  <text x="344" y="584" font-family="Arial" font-size="13" font-weight="bold" fill="#0F172A">Grab ke Kantor</text>
  <text x="344" y="600" font-family="Arial" font-size="11" fill="#64748B">Transportasi</text>
  <text x="928" y="584" font-family="Arial" font-size="13" font-weight="bold" fill="#EF4444" text-anchor="end">-Rp 22.000</text>
  <!-- Category sidebar -->
  <rect x="984" y="400" width="220" height="380" rx="14" fill="white"/>
  <text x="1004" y="432" font-family="Arial" font-size="14" font-weight="bold" fill="#0F172A">Kategori</text>
  <text x="1004" y="468" font-family="Arial" font-size="12" fill="#0F172A">Makanan</text>
  <rect x="1004" y="474" width="160" height="8" rx="4" fill="#E2E8F0"/>
  <rect x="1004" y="474" width="100" height="8" rx="4" fill="#0EA5E9"/>
  <text x="1004" y="510" font-family="Arial" font-size="12" fill="#0F172A">Transportasi</text>
  <rect x="1004" y="516" width="160" height="8" rx="4" fill="#E2E8F0"/>
  <rect x="1004" y="516" width="70" height="8" rx="4" fill="#38BDF8"/>
  <text x="1004" y="552" font-family="Arial" font-size="12" fill="#0F172A">Belanja</text>
  <rect x="1004" y="558" width="160" height="8" rx="4" fill="#E2E8F0"/>
  <rect x="1004" y="558" width="58" height="8" rx="4" fill="#7DD3FC"/>
</svg>
