<svg xmlns="http://www.w3.org/2000/svg" viewBox="0 0 390 844" width="390" height="844">
  <defs>
    <linearGradient id="header" x1="0%" y1="0%" x2="100%" y2="100%">
      <stop offset="0%" stop-color="#0EA5E9"/>
      <stop offset="50%" stop-color="#38BDF8"/>
      <stop offset="100%" stop-color="#7DD3FC"/>
    </linearGradient>
  </defs>

  <!-- Background -->
  <rect width="390" height="844" fill="#F0F9FF"/>

  <!-- Header -->
  <rect width="390" height="160" fill="url(#header)"/>
  <text x="24" y="52" font-family="Arial, sans-serif" font-size="14" fill="rgba(255,255,255,0.8)">Rabu, 11 Maret 2026</text>
  <text x="24" y="80" font-family="Arial, sans-serif" font-size="22" font-weight="bold" fill="white">HEMATIN</text>
  <text x="24" y="110" font-family="Arial, sans-serif" font-size="13" fill="rgba(255,255,255,0.9)">Saldo Bulan Ini</text>
  <text x="24" y="142" font-family="Arial, sans-serif" font-size="28" font-weight="bold" fill="white">Rp 2.450.000</text>

  <!-- Quick Actions -->
  <rect x="16" y="176" width="358" height="100" rx="16" fill="white" opacity="0.95"/>
  <text x="32" y="202" font-family="Arial, sans-serif" font-size="13" font-weight="bold" fill="#0F172A">Aksi Cepat</text>
  <!-- Action buttons -->
  <rect x="32" y="212" width="72" height="52" rx="12" fill="#EFF6FF"/>
  <text x="68" y="242" font-family="Arial, sans-serif" font-size="10" fill="#0EA5E9" text-anchor="middle">+ Pemasukan</text>
  <rect x="116" y="212" width="72" height="52" rx="12" fill="#FFF7ED"/>
  <text x="152" y="242" font-family="Arial, sans-serif" font-size="10" fill="#EA580C" text-anchor="middle">- Pengeluaran</text>
  <rect x="200" y="212" width="72" height="52" rx="12" fill="#F0FDF4"/>
  <text x="236" y="242" font-family="Arial, sans-serif" font-size="10" fill="#16A34A" text-anchor="middle">Scan Struk</text>
  <rect x="284" y="212" width="72" height="52" rx="12" fill="#FDF4FF"/>
  <text x="320" y="242" font-family="Arial, sans-serif" font-size="10" fill="#9333EA" text-anchor="middle">Laporan</text>

  <!-- AI Insight card -->
  <rect x="16" y="292" width="358" height="80" rx="16" fill="#0EA5E9"/>
  <text x="32" y="318" font-family="Arial, sans-serif" font-size="13" font-weight="bold" fill="white">AI Insight Hari Ini</text>
  <text x="32" y="340" font-family="Arial, sans-serif" font-size="11" fill="rgba(255,255,255,0.9)">Pengeluaran makan siang minggu ini</text>
  <text x="32" y="358" font-family="Arial, sans-serif" font-size="11" fill="rgba(255,255,255,0.9)">naik 23% dari minggu lalu. Pertimbangkan masak sendiri!</text>

  <!-- Recent transactions -->
  <text x="24" y="400" font-family="Arial, sans-serif" font-size="14" font-weight="bold" fill="#0F172A">Transaksi Terbaru</text>

  <!-- Tx items -->
  <rect x="16" y="412" width="358" height="64" rx="12" fill="white"/>
  <rect x="32" y="428" width="32" height="32" rx="8" fill="#FFF7ED"/>
  <text x="48" y="449" font-family="Arial, sans-serif" font-size="16" text-anchor="middle">🍜</text>
  <text x="76" y="440" font-family="Arial, sans-serif" font-size="13" font-weight="bold" fill="#0F172A">Makan Siang</text>
  <text x="76" y="458" font-family="Arial, sans-serif" font-size="11" fill="#64748B">Makanan &amp; Minuman</text>
  <text x="358" y="440" font-family="Arial, sans-serif" font-size="13" font-weight="bold" fill="#EF4444" text-anchor="end">-Rp 35.000</text>
  <text x="358" y="458" font-family="Arial, sans-serif" font-size="10" fill="#94A3B8" text-anchor="end">12:30</text>

  <rect x="16" y="484" width="358" height="64" rx="12" fill="white"/>
  <rect x="32" y="500" width="32" height="32" rx="8" fill="#F0FDF4"/>
  <text x="48" y="521" font-family="Arial, sans-serif" font-size="16" text-anchor="middle">💰</text>
  <text x="76" y="512" font-family="Arial, sans-serif" font-size="13" font-weight="bold" fill="#0F172A">Gaji Maret</text>
  <text x="76" y="530" font-family="Arial, sans-serif" font-size="11" fill="#64748B">Gaji &amp; Upah</text>
  <text x="358" y="512" font-family="Arial, sans-serif" font-size="13" font-weight="bold" fill="#22C55E" text-anchor="end">+Rp 5.500.000</text>
  <text x="358" y="530" font-family="Arial, sans-serif" font-size="10" fill="#94A3B8" text-anchor="end">09:00</text>

  <rect x="16" y="556" width="358" height="64" rx="12" fill="white"/>
  <rect x="32" y="572" width="32" height="32" rx="8" fill="#EFF6FF"/>
  <text x="48" y="593" font-family="Arial, sans-serif" font-size="16" text-anchor="middle">🚗</text>
  <text x="76" y="584" font-family="Arial, sans-serif" font-size="13" font-weight="bold" fill="#0F172A">Grab ke Kantor</text>
  <text x="76" y="602" font-family="Arial, sans-serif" font-size="11" fill="#64748B">Transportasi</text>
  <text x="358" y="584" font-family="Arial, sans-serif" font-size="13" font-weight="bold" fill="#EF4444" text-anchor="end">-Rp 22.000</text>
  <text x="358" y="602" font-family="Arial, sans-serif" font-size="10" fill="#94A3B8" text-anchor="end">08:15</text>

  <!-- Mini chart area -->
  <rect x="16" y="636" width="358" height="140" rx="16" fill="white"/>
  <text x="32" y="662" font-family="Arial, sans-serif" font-size="13" font-weight="bold" fill="#0F172A">Pengeluaran 7 Hari</text>
  <!-- Bar chart bars -->
  <rect x="48" y="720" width="28" height="40" rx="4" fill="#BAE6FD"/>
  <rect x="96" y="700" width="28" height="60" rx="4" fill="#BAE6FD"/>
  <rect x="144" y="710" width="28" height="50" rx="4" fill="#0EA5E9"/>
  <rect x="192" y="695" width="28" height="65" rx="4" fill="#BAE6FD"/>
  <rect x="240" y="715" width="28" height="45" rx="4" fill="#BAE6FD"/>
  <rect x="288" y="705" width="28" height="55" rx="4" fill="#BAE6FD"/>
  <rect x="336" y="690" width="28" height="70" rx="4" fill="#0EA5E9"/>
  <text x="62" y="774" font-family="Arial, sans-serif" font-size="9" fill="#94A3B8" text-anchor="middle">Sen</text>
  <text x="110" y="774" font-family="Arial, sans-serif" font-size="9" fill="#94A3B8" text-anchor="middle">Sel</text>
  <text x="158" y="774" font-family="Arial, sans-serif" font-size="9" fill="#0EA5E9" text-anchor="middle">Rab</text>
  <text x="206" y="774" font-family="Arial, sans-serif" font-size="9" fill="#94A3B8" text-anchor="middle">Kam</text>
  <text x="254" y="774" font-family="Arial, sans-serif" font-size="9" fill="#94A3B8" text-anchor="middle">Jum</text>
  <text x="302" y="774" font-family="Arial, sans-serif" font-size="9" fill="#94A3B8" text-anchor="middle">Sab</text>
  <text x="350" y="774" font-family="Arial, sans-serif" font-size="9" fill="#94A3B8" text-anchor="middle">Min</text>

  <!-- Bottom nav -->
  <rect y="796" width="390" height="48" fill="white"/>
  <rect y="796" width="390" height="1" fill="#BAE6FD"/>
  <text x="42" y="826" font-family="Arial, sans-serif" font-size="10" fill="#0EA5E9" text-anchor="middle">🏠 Home</text>
  <text x="120" y="826" font-family="Arial, sans-serif" font-size="10" fill="#94A3B8" text-anchor="middle">📋 Transaksi</text>
  <text x="195" y="826" font-family="Arial, sans-serif" font-size="10" fill="#94A3B8" text-anchor="middle">📷 Scan</text>
  <text x="270" y="826" font-family="Arial, sans-serif" font-size="10" fill="#94A3B8" text-anchor="middle">📊 Laporan</text>
  <text x="348" y="826" font-family="Arial, sans-serif" font-size="10" fill="#94A3B8" text-anchor="middle">⚙️ Setting</text>
</svg>
